<svg xmlns="http://www.w3.org/2000/svg" height="25" width="38"><path fill="#000" d="M37.15 13.05c0-3.15-.8-6.08-2.22-8.13a7.36 7.36 0 00-4.64-3.3c-1.29-.32-3.11-.51-4.7-.51h-6.7v.24c1.8.49 2.3 1.16 2.3 3.27v14.36c0 3-.26 5.06-1.1 5.8a6.7 6.7 0 01-.8-1.67l-.39-.96c-.34-.81-.9-2.33-1.06-2.78L11.12 0 4.4 18.85c-.2.52-.59 1.66-.62 1.76-.37 1-.71 1.66-1.08 2.27-.6.98-1.09 1.45-1.85 1.88V25h7.12v-.24a2.22 2.22 0 01-2.07-1.8c-.06-.36-.13-1.49-.13-1.88v-.06c.02-.94.04-2.62.46-4.5h6.94l1.03 3.43.16.53a8.7 8.7 0 01.5 2.47c0 1.07-.56 1.61-1.82 1.8V25h14.84c2.35 0 4-.55 5.46-1.82 2.39-2.05 3.81-5.86 3.81-10.13zM13.11 16.3H6.27c.46-1.92 1.3-4.94 1.8-6.57l.33-1.1.33-1.08.37-1.07.2-.62c.14-.36.3-.78.35-.97zm18.34 4.84c1.02-1.68 1.54-3.63 1.63-7.92 0-2.7-.2-4.4-.63-5.77-1.51-4.57-3.31-6.12-7.59-6.1v23.4c4.23-.1 5-1.02 6.59-3.61z" clip-rule="evenodd" fill-rule="evenodd" /></svg>